<svg width="445" height="889" viewBox="0 0 445 889" fill="none" xmlns="http://www.w3.org/2000/svg">
<g opacity="0.4">
<path d="M-118.684 690.511C-92.6716 711.194 -62.7587 712.249 -32.0532 704.906C-2.28516 697.786 28.1256 682.8 56.343 670.241L59.0667 669.034C88.7069 655.95 122.983 643.505 150.731 625.449C178.021 607.69 198.898 584.563 202.748 550.175L202.917 548.529C206.177 514.269 187.037 489.624 162.403 466.159C156.247 460.295 149.756 454.512 143.192 448.673C136.63 442.836 129.995 436.942 123.563 430.867C111.103 419.098 99.3849 406.628 90.3911 392.505L89.5298 391.133C79.5538 375.03 72.7708 356.123 67.1615 336.515C64.3565 326.71 61.8427 316.723 59.3706 306.818C56.8978 296.911 54.4667 287.088 51.8246 277.601C41.3258 239.901 27.5526 207.749 -5.02927 196.902L-5.80249 196.65C-41.1897 185.338 -80.1717 194.456 -114.489 215.303C-148.267 235.822 -177.464 267.669 -194.173 302.425L-194.96 304.083C-209.242 334.596 -202.107 366.323 -189.608 399.187C-183.355 415.629 -175.792 432.278 -168.908 449.221C-162.248 465.613 -156.242 482.236 -152.754 499.056L-152.424 500.685C-149.134 517.347 -148.522 535.074 -148.662 552.894C-148.801 570.739 -149.691 588.629 -149.418 605.737C-148.877 639.676 -143.75 670.166 -119.266 690.044L-118.684 690.511Z" stroke="#00F0B5"/>
<path d="M-93.2528 638.134C-72.8081 654.39 -49.295 655.224 -25.1362 649.447C-2.46632 644.025 20.6766 632.806 42.2867 623.123L46.5881 621.209C69.9346 610.904 96.9059 601.111 118.743 586.901C140.216 572.928 156.626 554.743 159.652 527.71L159.786 526.416C162.347 499.494 147.312 480.121 127.921 461.65C123.076 457.035 117.966 452.483 112.797 447.885C107.631 443.289 102.405 438.648 97.3402 433.864C87.5273 424.595 78.2938 414.769 71.2057 403.639L70.526 402.558C62.6638 389.867 57.3207 374.969 52.9034 359.528C50.6943 351.806 48.7148 343.941 46.7684 336.142C44.8214 328.342 42.9078 320.609 40.828 313.141C32.561 283.455 21.7279 258.199 -3.86566 249.678L-4.47353 249.48C-32.2962 240.586 -62.9561 247.751 -89.9596 264.155C-116.538 280.3 -139.511 305.361 -152.658 332.707L-153.276 334.011C-164.502 357.994 -158.899 382.938 -149.061 408.808C-144.137 421.754 -138.186 434.854 -132.763 448.2C-127.519 461.108 -122.787 474.203 -120.039 487.456L-119.779 488.739C-117.187 501.869 -116.704 515.834 -116.814 529.867C-116.924 543.925 -117.626 558 -117.411 571.47C-116.988 597.978 -113.01 621.771 -94.1615 637.396L-93.2528 638.134Z" stroke="#00F0B5"/>
<path d="M-74.8784 600.289C-58.4568 613.346 -39.5683 614.022 -20.1399 609.375C-1.90422 605.014 16.7115 595.99 34.1089 588.195L37.5708 586.654C56.3699 578.356 78.0646 570.48 95.6316 559.049C112.901 547.811 126.083 533.196 128.515 511.478L128.622 510.438C130.679 488.819 118.608 473.256 103.005 458.393C99.1068 454.68 94.9958 451.017 90.8358 447.316C86.678 443.617 82.4716 439.881 78.3937 436.029C70.4934 428.567 63.0543 420.652 57.3428 411.684L56.7962 410.813C50.4611 400.587 46.1564 388.586 42.6003 376.156C40.8218 369.939 39.2283 363.606 37.6618 357.33C36.0946 351.051 34.5549 344.829 32.8814 338.82C26.2793 315.113 17.6557 294.968 -2.54309 287.973L-3.51336 287.65C-25.8705 280.503 -50.5176 286.258 -72.2365 299.452C-93.6127 312.437 -112.09 332.594 -122.663 354.586L-123.16 355.634C-132.178 374.899 -127.682 394.942 -119.765 415.759C-115.802 426.178 -111.015 436.713 -106.648 447.461C-102.426 457.852 -98.6159 468.399 -96.4021 479.074L-96.1921 480.108C-94.1036 490.685 -93.7158 501.933 -93.8041 513.229C-93.8926 524.55 -94.4576 535.87 -94.2848 546.711C-93.9447 568.043 -90.7417 587.152 -75.6082 599.697L-74.8784 600.289Z" stroke="#00F0B5"/>
</g>
</svg>
